<?xml version="1.0" standalone="no"?>
<!DOCTYPE svg PUBLIC "-//W3C//DTD SVG 20010904//EN"
 "http://www.w3.org/TR/2001/REC-SVG-20010904/DTD/svg10.dtd">
<svg version="1.0" xmlns="http://www.w3.org/2000/svg"
 width="495.000000pt" height="495.000000pt" viewBox="0 0 495.000000 495.000000"
 preserveAspectRatio="xMidYMid meet">
<metadata>
Created by potrace 1.11, written by Peter Selinger 2001-2013
</metadata>
<g transform="translate(0.000000,495.000000) scale(0.100000,-0.100000)"
fill="#000000" stroke="none">
<path d="M2170 4940 c-8 -4 -65 -17 -126 -29 -486 -90 -916 -314 -1281 -666
-90 -87 -106 -120 -51 -104 37 10 251 51 373 71 108 17 560 17 680 0 136 -20
281 -50 370 -76 144 -43 115 -50 386 82 391 191 632 288 762 307 55 8 57 4 26
-58 -54 -105 -129 -380 -129 -473 0 -60 33 -139 91 -216 53 -71 233 -248 364
-358 129 -109 185 -173 185 -213 0 -19 -22 -99 -49 -179 l-49 -146 48 -69 c27
-38 106 -127 177 -199 141 -144 469 -457 511 -488 15 -11 42 -37 61 -58 l34
-39 -30 -42 c-65 -91 -207 -182 -323 -206 -32 -7 -84 -30 -125 -56 -38 -24
-113 -70 -165 -101 -52 -32 -122 -78 -155 -102 -57 -41 -220 -125 -296 -152
-62 -22 -80 -11 -123 84 -22 47 -49 97 -61 112 l-22 27 -20 -20 c-11 -11 -23
-27 -25 -34 -7 -21 -30 1 -100 98 -33 46 -65 83 -71 83 -6 0 -19 -7 -29 -17
-17 -15 -20 -14 -56 13 -45 37 -131 92 -195 127 -43 23 -48 24 -56 9 -5 -9 -7
-44 -6 -77 2 -33 6 -117 10 -187 3 -71 2 -128 -2 -128 -10 0 -78 47 -183 128
-77 59 -103 71 -113 55 -17 -27 -27 -254 -16 -373 10 -120 58 -348 88 -415 4
-11 14 -38 21 -60 41 -135 181 -370 260 -437 39 -34 31 -51 -18 -43 -78 12
-150 54 -350 203 -62 46 -115 82 -118 79 -9 -8 34 -190 66 -282 17 -49 56
-141 85 -202 l54 -113 138 0 c81 0 132 4 124 9 -8 5 11 11 55 16 389 39 910
271 1220 542 135 118 298 287 376 391 259 343 442 784 488 1172 6 52 13 111
16 130 11 75 15 485 5 470 -8 -12 -11 -5 -12 28 -1 23 -2 45 -3 50 -2 4 -6 30
-10 57 -44 292 -163 626 -307 864 -22 34 -39 65 -39 67 0 11 -94 144 -101 144
-5 0 -9 5 -9 11 0 20 -108 148 -224 267 -278 285 -603 488 -977 611 -128 42
-314 87 -407 98 -29 3 -55 10 -58 14 -7 12 -564 11 -584 -1z"/>
<path d="M2768 4943 c7 -3 16 -2 19 1 4 3 -2 6 -13 5 -11 0 -14 -3 -6 -6z"/>
<path d="M2990 4336 c-160 -61 -295 -140 -477 -278 -75 -56 -135 -80 -247 -98
-60 -10 -80 -8 -151 15 -22 7 -119 25 -215 41 -157 25 -199 28 -405 27 -232
-1 -450 -15 -528 -32 -23 -6 -103 -22 -177 -36 -183 -35 -279 -63 -316 -90
-49 -37 -194 -299 -262 -472 -77 -196 -142 -449 -162 -633 -1 -8 -6 -4 -10 10
-4 14 -8 -123 -9 -303 -1 -181 3 -326 7 -323 4 2 14 -32 21 -77 25 -166 89
-395 157 -564 138 -346 385 -686 684 -944 293 -252 706 -453 1089 -528 152
-30 161 -31 161 -21 0 5 -26 39 -58 74 -61 67 -163 211 -200 281 -63 122 -192
420 -192 445 0 7 -6 26 -14 43 -7 18 -23 60 -36 95 -37 108 -49 132 -64 126
-14 -6 -57 -87 -74 -144 -16 -51 -32 -181 -32 -258 0 -98 -8 -103 -66 -39 -70
77 -240 382 -329 591 -139 326 -205 533 -237 744 -7 45 -16 72 -24 72 -21 0
-102 -91 -145 -161 -22 -37 -48 -74 -59 -84 -18 -16 -19 -16 -33 17 -46 110
-58 506 -22 708 28 153 60 268 122 430 55 144 80 192 177 344 145 227 305 359
513 423 45 14 91 18 208 18 l150 -1 120 -43 c169 -61 180 -74 73 -86 -149 -16
-261 -58 -398 -150 -121 -80 -207 -159 -301 -277 -139 -173 -282 -418 -245
-418 2 0 86 29 185 65 100 36 188 65 196 65 14 0 14 -3 1 -27 -8 -16 -27 -44
-43 -64 -71 -90 -171 -348 -189 -487 l-7 -56 54 46 c146 125 462 309 487 284
3 -4 -2 -28 -11 -54 -27 -70 -73 -237 -87 -317 -24 -138 -2 -410 32 -389 5 3
36 47 70 97 34 51 84 116 112 145 48 51 177 162 189 162 6 0 13 -71 23 -220
11 -183 56 -351 127 -477 61 -109 75 -101 88 48 8 100 32 219 49 251 6 10 10
24 10 32 0 7 18 33 39 57 48 54 55 51 128 -51 58 -81 90 -117 98 -108 3 3 12
45 20 94 17 104 40 154 72 154 12 0 63 -20 114 -45 85 -41 96 -44 158 -41 36
2 72 1 78 -1 7 -3 35 -42 63 -88 52 -86 62 -95 111 -95 45 0 179 -39 210 -61
36 -25 67 -65 85 -108 16 -37 18 -37 112 -3 39 14 65 33 102 77 28 31 49 62
47 69 -2 6 -28 12 -58 13 -30 1 -59 2 -64 2 -10 1 -51 33 -129 102 -23 20 -90
75 -151 124 -151 120 -270 228 -335 303 -52 59 -78 107 -67 118 13 14 378 -68
497 -111 181 -66 296 -139 424 -270 l78 -80 -6 -62 c-4 -35 -2 -64 3 -67 5 -4
38 13 73 37 83 57 85 57 164 46 38 -5 81 -7 96 -3 26 5 138 107 138 125 0 21
-46 49 -80 49 -39 0 -62 -18 -97 -77 l-20 -33 -21 23 c-30 32 -52 90 -52 137
0 36 4 42 35 57 19 9 35 21 35 26 0 5 -85 95 -189 200 -103 106 -205 211 -226
235 -69 77 -67 77 -362 77 -284 0 -298 3 -225 48 77 47 204 90 320 108 119 18
120 19 71 58 -29 22 -33 23 -105 12 -41 -6 -96 -11 -121 -11 -43 0 -51 4 -94
49 -25 26 -61 79 -79 117 -18 38 -40 84 -49 102 -9 19 -43 53 -76 77 -66 47
-112 92 -103 100 11 12 465 -225 583 -304 22 -15 48 -30 57 -34 25 -9 77 47
113 122 l29 61 -25 26 c-13 14 -87 69 -164 121 -152 104 -252 193 -322 290
-46 65 -112 211 -113 250 0 12 -5 34 -10 48 -10 27 -11 26 -106 -74 -123 -129
-162 -149 -299 -156 -82 -3 -110 -1 -155 15 -30 11 -61 26 -68 34 -13 12 -9
18 27 43 23 15 79 55 124 88 116 84 513 476 480 475 -4 -1 -46 -16 -93 -34z"/>
</g>
</svg>
