<?xml version="1.0" standalone="no"?>
<!DOCTYPE svg PUBLIC "-//W3C//DTD SVG 20010904//EN"
 "http://www.w3.org/TR/2001/REC-SVG-20010904/DTD/svg10.dtd">
<svg version="1.0" xmlns="http://www.w3.org/2000/svg"
 width="410.000000pt" height="410.000000pt" viewBox="0 0 410.000000 410.000000"
 preserveAspectRatio="xMidYMid meet">
<metadata>
Created by potrace 1.11, written by Peter Selinger 2001-2013
</metadata>
<g transform="translate(0.000000,410.000000) scale(0.100000,-0.100000)"
fill="#000000" stroke="none">
<path d="M1919 4086 c-2 -2 -38 -6 -79 -10 -237 -19 -478 -89 -703 -203 -193
-99 -456 -288 -432 -311 6 -5 51 -12 100 -16 211 -14 407 -46 605 -99 l125
-34 126 61 c358 174 472 228 545 257 141 57 394 124 394 106 0 -4 -31 -84 -69
-179 -39 -95 -75 -196 -81 -223 -15 -65 -15 -149 -1 -202 27 -100 167 -254
436 -480 76 -65 154 -137 172 -161 46 -61 44 -98 -13 -229 -56 -129 -60 -173
-19 -235 31 -47 362 -380 629 -634 l170 -160 -19 -25 c-37 -48 -156 -145 -217
-176 -34 -18 -83 -35 -108 -38 -58 -7 -114 -37 -283 -153 -164 -112 -292 -185
-407 -234 -128 -54 -125 -54 -153 -16 -27 34 -90 161 -100 198 -5 18 -9 20
-25 11 -11 -6 -25 -24 -32 -41 -7 -16 -16 -30 -21 -30 -4 0 -42 45 -84 100
-42 55 -78 100 -81 100 -3 0 -13 -9 -22 -20 -17 -20 -18 -19 -97 37 -86 62
-203 128 -212 120 -7 -8 -7 -118 1 -264 5 -73 5 -133 2 -133 -20 0 -93 48
-181 120 -90 73 -101 79 -112 63 -7 -9 -13 -28 -14 -42 0 -14 -2 -35 -5 -46
-6 -32 -5 -275 2 -325 3 -25 14 -82 24 -127 13 -60 15 -83 6 -83 -17 0 -199
190 -295 309 -46 57 -118 151 -158 210 -41 58 -79 106 -85 106 -5 0 -39 -142
-74 -315 -35 -173 -67 -323 -70 -332 -4 -13 20 -28 113 -73 243 -117 431 -180
620 -207 46 -7 83 -16 83 -20 0 -5 108 -8 240 -7 132 0 238 4 236 8 -3 4 34
13 81 20 423 65 831 283 1155 617 232 240 409 555 493 880 27 104 27 106 46
234 14 95 18 407 7 514 -36 332 -141 625 -320 893 -325 488 -831 815 -1388
897 -102 16 -440 32 -451 22z"/>
<path d="M2225 3636 c-169 -73 -241 -113 -351 -197 -144 -109 -189 -136 -265
-155 -82 -21 -185 -14 -374 25 -189 39 -193 40 -495 47 l-266 6 -66 -94 c-155
-219 -283 -475 -328 -655 -12 -49 1 -40 40 29 46 81 186 223 283 286 155 101
318 147 492 139 129 -6 194 -24 290 -80 78 -45 77 -47 -33 -61 -72 -8 -226
-61 -302 -103 -196 -107 -356 -271 -487 -498 -59 -101 -113 -205 -113 -216 0
-16 25 -10 178 46 144 53 192 64 192 47 0 -4 -19 -30 -42 -57 -126 -152 -207
-330 -253 -559 -14 -68 -25 -154 -25 -191 l0 -67 27 7 c14 3 83 46 152 95 134
94 265 170 294 170 21 0 21 -3 -3 -126 -34 -175 -43 -338 -28 -517 7 -93 15
-116 55 -167 7 -8 74 76 140 175 89 134 169 231 246 299 36 31 67 56 70 56 3
0 8 -24 12 -52 14 -110 17 -125 36 -207 22 -96 66 -184 117 -237 l36 -37 7 25
c3 13 9 67 13 119 9 121 30 210 63 271 25 46 68 88 91 88 6 0 35 -37 65 -83
30 -45 66 -92 80 -105 l25 -24 5 29 c3 15 9 53 12 85 7 65 42 142 67 146 9 2
63 -17 120 -42 108 -47 141 -54 193 -42 42 9 57 -5 107 -99 l43 -79 90 -13
c158 -22 224 -61 264 -153 25 -59 28 -59 127 -4 65 36 117 82 140 126 20 38
14 39 -73 23 -30 -5 -42 2 -130 73 -54 43 -155 122 -225 175 -160 123 -263
222 -322 314 -25 39 -46 74 -46 77 0 22 295 -31 435 -79 183 -62 334 -148 448
-254 94 -89 111 -119 103 -187 -4 -37 -3 -54 5 -54 6 0 48 18 93 41 79 39 84
40 169 38 l87 -3 54 53 c59 59 70 81 52 107 -30 40 -119 9 -167 -57 -18 -25
-23 -28 -37 -17 -25 21 -52 90 -52 135 0 37 4 43 36 62 20 12 35 24 33 26 -2
2 -58 59 -124 127 -67 68 -163 172 -215 232 -51 60 -107 117 -124 127 -48 29
-104 34 -351 31 l-230 -2 30 26 c69 59 198 105 348 123 43 5 81 12 84 14 12
12 -20 46 -48 52 -18 4 -82 4 -143 0 l-112 -7 -38 44 c-56 63 -81 104 -112
187 -27 70 -32 76 -99 121 -39 26 -76 55 -83 63 -62 74 199 -53 606 -295 l32
-20 40 43 c22 23 49 63 61 87 27 59 20 72 -78 142 -235 169 -327 247 -397 339
-60 78 -104 169 -123 254 -8 40 -19 76 -23 80 -4 5 -17 -7 -29 -26 -26 -42
-104 -116 -159 -151 -80 -50 -149 -70 -247 -71 -80 0 -96 3 -144 28 -29 16
-50 32 -45 36 5 5 45 32 89 61 53 36 153 125 298 269 201 199 245 246 235 256
-2 2 -49 -15 -103 -39z"/>
</g>
</svg>
